<?xml version="1.0" standalone="no"?>
<!DOCTYPE svg PUBLIC "-//W3C//DTD SVG 20010904//EN"
 "http://www.w3.org/TR/2001/REC-SVG-20010904/DTD/svg10.dtd">
<svg version="1.0" xmlns="http://www.w3.org/2000/svg"
 width="426.000000pt" height="426.000000pt" viewBox="0 0 426.000000 426.000000"
 preserveAspectRatio="xMidYMid meet">

<g transform="translate(0.000000,426.000000) scale(0.100000,-0.100000)"
fill="#000000" stroke="none">
<path d="M1110 3203 c-28 -10 -69 -56 -75 -84 -14 -65 -8 -72 446 -525 242
-242 445 -447 451 -458 9 -16 -49 -77 -440 -470 -473 -474 -473 -474 -457
-546 7 -33 53 -77 90 -86 63 -16 83 1 540 462 243 244 447 444 455 444 8 0
214 -200 458 -444 324 -326 452 -448 477 -456 97 -32 185 69 141 162 -9 19
-212 229 -456 473 -242 241 -440 443 -440 448 0 6 201 212 447 458 246 246
451 458 456 471 22 58 -24 140 -84 153 -71 16 -72 15 -547 -458 l-452 -452
-201 200 c-110 110 -309 309 -442 442 -132 133 -255 249 -273 258 -32 15 -66
18 -94 8z"/>
</g>
</svg>
