<?xml version="1.0" standalone="no"?>
<!DOCTYPE svg PUBLIC "-//W3C//DTD SVG 20010904//EN"
 "http://www.w3.org/TR/2001/REC-SVG-20010904/DTD/svg10.dtd">
<svg version="1.0" xmlns="http://www.w3.org/2000/svg"
 width="260.000000pt" height="260.000000pt" viewBox="0 0 260.000000 260.000000"
 preserveAspectRatio="xMidYMid meet">

<g transform="translate(0.000000,260.000000) scale(0.100000,-0.100000)"
fill="#000000" stroke="none">
<path d="M1918 2490 c-122 -64 -232 -196 -331 -400 -28 -58 -52 -107 -54 -110
-2 -2 -14 2 -26 10 -80 51 -207 91 -282 89 -16 0 2 -7 40 -14 39 -7 91 -22
115 -35 62 -31 129 -82 130 -98 0 -25 -182 -515 -252 -677 -93 -217 -258 -505
-289 -505 -14 0 -44 71 -71 170 -19 73 -23 109 -23 257 l0 171 -60 18 c-33 10
-65 20 -72 22 -15 4 -39 -73 -54 -173 -26 -182 26 -415 125 -561 23 -34 24
-40 10 -55 -23 -26 -128 -69 -182 -76 -241 -28 -396 266 -297 562 47 139 160
301 278 398 l47 38 42 -35 c92 -79 203 -94 310 -42 35 16 43 23 23 18 -36 -8
-113 -7 -121 1 -13 13 24 92 78 169 7 9 9 20 5 25 -19 18 -171 -67 -196 -109
-9 -16 -18 -28 -21 -28 -3 0 -18 11 -34 24 l-30 23 75 50 c41 28 100 65 131
82 56 32 57 32 89 16 52 -28 112 -13 164 40 42 44 92 65 192 80 35 5 43 11 52
37 l11 31 -70 -7 c-38 -4 -84 -11 -102 -17 -27 -7 -35 -6 -46 8 -11 15 -12 13
-6 -14 14 -71 -66 -156 -147 -156 -22 0 -45 5 -51 11 -14 14 -16 12 50 42 64
29 53 37 -30 20 -71 -14 -78 -9 -78 59 0 62 33 125 88 166 24 19 40 35 34 35
-6 0 -30 -15 -54 -33 -56 -43 -82 -108 -75 -189 l5 -57 -52 -20 c-56 -21 -141
-68 -193 -107 -17 -13 -34 -24 -36 -24 -14 0 -38 88 -33 120 4 22 3 30 -3 20
-16 -28 -22 -88 -12 -131 l10 -44 -63 -65 c-160 -167 -250 -341 -277 -536 -31
-221 72 -419 270 -517 67 -34 81 -37 155 -37 136 1 201 42 376 237 253 282
327 348 431 383 l52 18 -64 7 c-73 8 -131 -4 -196 -40 -24 -13 -43 -22 -43
-21 0 1 23 63 51 137 54 144 119 349 164 519 51 191 56 210 63 210 13 0 72
-108 93 -167 33 -96 60 -242 66 -363 l6 -115 -36 32 c-93 81 -230 63 -282 -38
-22 -42 -18 -46 8 -8 43 65 124 86 202 50 47 -21 104 -82 106 -114 1 -12 1
-128 -1 -257 -1 -144 2 -265 10 -313 6 -43 10 -81 7 -83 -2 -3 -28 26 -56 64
-65 88 -130 148 -188 174 -51 22 -146 34 -189 24 -27 -7 -26 -8 28 -30 31 -13
86 -46 121 -75 70 -55 233 -228 224 -237 -26 -26 -224 -32 -312 -9 -80 21
-176 70 -229 116 l-43 38 -51 -52 -51 -52 32 -22 c87 -58 197 -95 336 -113
100 -13 165 -9 298 16 l82 16 98 -91 c54 -50 114 -101 133 -114 66 -44 173
-101 165 -86 -5 8 -22 33 -37 56 -36 54 -101 183 -127 253 -45 123 -64 241
-96 595 -30 327 -75 560 -136 706 -49 118 -49 115 1 88 24 -13 80 -60 125
-104 66 -64 90 -97 124 -165 68 -141 84 -218 85 -410 1 -184 -16 -270 -75
-395 -29 -62 -30 -68 -19 -120 6 -30 15 -55 20 -55 18 0 131 147 169 220 22
42 52 116 67 165 23 79 26 108 27 235 1 169 -17 252 -84 381 -94 181 -280 316
-497 360 -44 9 -70 21 -89 41 l-26 27 28 78 c78 222 194 377 342 460 72 41 58
42 -19 3z"/>
<path d="M670 1820 c-6 -11 -8 -20 -6 -20 3 0 10 9 16 20 6 11 8 20 6 20 -3 0
-10 -9 -16 -20z"/>
</g>
</svg>
